<svg width="39" height="17" viewBox="0 0 39 17" fill="none" xmlns="http://www.w3.org/2000/svg">
<g clip-path="url(#clip0_237_940)">
<path d="M22.6731 15.6094V15.525L22.1688 8.775C22.1548 8.59219 22.0778 8.43398 21.9377 8.30039C21.7976 8.1668 21.6365 8.1 21.4544 8.1H17.546C17.3639 8.1 17.2028 8.1668 17.0627 8.30039C16.9226 8.43398 16.8456 8.59219 16.8315 8.775L16.3272 15.525V15.6094C16.3132 15.7781 16.3693 15.9187 16.4953 16.0312C16.6214 16.1438 16.7685 16.2 16.9366 16.2H22.0638C22.2319 16.2 22.379 16.1438 22.505 16.0312C22.6311 15.9187 22.6871 15.7781 22.6731 15.6094ZM38.622 25.4602C38.622 26.4867 38.2998 27 37.6554 27H22.8623C23.0444 27 23.1985 26.9332 23.3245 26.7996C23.4506 26.666 23.5066 26.5078 23.4926 26.325L23.0724 20.925C23.0584 20.7422 22.9813 20.584 22.8412 20.4504C22.7012 20.3168 22.5401 20.25 22.3579 20.25H16.6424C16.4603 20.25 16.2992 20.3168 16.1591 20.4504C16.019 20.584 15.942 20.7422 15.928 20.925L15.5077 26.325C15.4937 26.5078 15.5498 26.666 15.6758 26.7996C15.8019 26.9332 15.956 27 16.1381 27H1.34501C0.700616 27 0.378418 26.4867 0.378418 25.4602C0.378418 24.7008 0.56053 23.8852 0.924754 23.0133L9.68715 0.991406C9.79922 0.724219 9.98133 0.492188 10.2335 0.295312C10.4856 0.0984375 10.7518 0 11.032 0H18.1554C17.9732 0 17.8121 0.0667969 17.6721 0.200391C17.532 0.333984 17.4549 0.492188 17.4409 0.675L17.1257 4.725C17.1117 4.92188 17.1677 5.08359 17.2938 5.21016C17.4199 5.33672 17.574 5.4 17.7561 5.4H21.2443C21.4264 5.4 21.5805 5.33672 21.7065 5.21016C21.8326 5.08359 21.8887 4.92188 21.8746 4.725L21.5595 0.675C21.5454 0.492188 21.4684 0.333984 21.3283 0.200391C21.1882 0.0667969 21.0271 0 20.845 0H27.9684C28.2486 0 28.5147 0.0984375 28.7669 0.295312C29.019 0.492188 29.2012 0.724219 29.3132 0.991406L38.0756 23.0133C38.4398 23.8852 38.622 24.7008 38.622 25.4602Z" fill="#092936"/>
</g>
<defs>
<clipPath id="clip0_237_940">
<rect width="39" height="27" fill="white"/>
</clipPath>
</defs>
</svg>
