<svg width="23" height="23" viewBox="0 0 23 23" fill="none" xmlns="http://www.w3.org/2000/svg">
<path d="M12.4876 1.81432C12.2207 1.56198 11.8673 1.42139 11.5 1.42139C11.1327 1.42139 10.7793 1.56198 10.5124 1.81432L3.54919 8.39519C3.33598 8.59695 3.16621 8.84011 3.05028 9.10979C2.93436 9.37946 2.87471 9.66997 2.875 9.9635V17.9704C2.87538 18.542 3.10273 19.0901 3.50706 19.4942C3.91139 19.8982 4.45963 20.1252 5.03125 20.1252H7.1875C7.75937 20.1252 8.30783 19.898 8.7122 19.4936C9.11658 19.0893 9.34375 18.5408 9.34375 17.9689V14.3752C9.34375 14.1846 9.41948 14.0018 9.55427 13.867C9.68906 13.7322 9.87188 13.6564 10.0625 13.6564H12.9375C13.1281 13.6564 13.3109 13.7322 13.4457 13.867C13.5805 14.0018 13.6563 14.1846 13.6563 14.3752V17.9689C13.6563 18.5408 13.8834 19.0893 14.2878 19.4936C14.6922 19.898 15.2406 20.1252 15.8125 20.1252H17.9688C18.5406 20.1252 19.0891 19.898 19.4935 19.4936C19.8978 19.0893 20.125 18.5408 20.125 17.9689V9.96207C20.1249 9.66867 20.0649 9.37837 19.9488 9.10896C19.8326 8.83954 19.6627 8.59666 19.4494 8.39519L12.4876 1.81144V1.81432Z" fill="white"/>
</svg>
