<svg width="24" height="24" viewBox="0 0 24 24" fill="none" xmlns="http://www.w3.org/2000/svg">
<path fill-rule="evenodd" clip-rule="evenodd" d="M4.99983 11C4.99983 10.2121 5.15503 9.43185 5.45656 8.7039C5.75808 7.97595 6.20004 7.31451 6.75719 6.75736C7.31434 6.20021 7.97578 5.75825 8.70373 5.45672C9.43169 5.15519 10.2119 5 10.9998 5C11.7878 5 12.568 5.15519 13.2959 5.45672C14.0239 5.75825 14.6853 6.20021 15.2425 6.75736C15.7996 7.31451 16.2416 7.97595 16.5431 8.7039C16.8446 9.43185 16.9998 10.2121 16.9998 11C16.9998 12.5913 16.3677 14.1174 15.2425 15.2426C14.1173 16.3679 12.5911 17 10.9998 17C9.40853 17 7.88241 16.3679 6.75719 15.2426C5.63197 14.1174 4.99983 12.5913 4.99983 11ZM10.9998 3C9.72669 3.00018 8.47198 3.30422 7.33997 3.88684C6.20797 4.46946 5.23136 5.31384 4.49132 6.3498C3.75127 7.38577 3.26917 8.5834 3.08506 9.84315C2.90096 11.1029 3.02018 12.3884 3.43281 13.5928C3.84544 14.7973 4.53957 15.8858 5.4575 16.768C6.37543 17.6502 7.49067 18.3006 8.71051 18.6651C9.93035 19.0296 11.2196 19.0977 12.471 18.8638C13.7225 18.6298 14.9001 18.1006 15.9058 17.32L19.2928 20.707C19.4814 20.8892 19.734 20.99 19.9962 20.9877C20.2584 20.9854 20.5092 20.8802 20.6947 20.6948C20.8801 20.5094 20.9852 20.2586 20.9875 19.9964C20.9898 19.7342 20.889 19.4816 20.7068 19.293L17.3198 15.906C18.2379 14.7235 18.8058 13.307 18.9588 11.8178C19.1118 10.3285 18.8439 8.82619 18.1855 7.48165C17.5271 6.1371 16.5046 5.00429 15.2343 4.21202C13.964 3.41976 12.4969 2.99983 10.9998 3ZM10.9998 15C12.0607 15 13.0781 14.5786 13.8283 13.8284C14.5784 13.0783 14.9998 12.0609 14.9998 11C14.9998 9.93913 14.5784 8.92172 13.8283 8.17157C13.0781 7.42143 12.0607 7 10.9998 7C9.93897 7 8.92155 7.42143 8.17141 8.17157C7.42126 8.92172 6.99983 9.93913 6.99983 11C6.99983 12.0609 7.42126 13.0783 8.17141 13.8284C8.92155 14.5786 9.93897 15 10.9998 15Z" fill="black"/>
</svg>
