<svg width="72" height="59" viewBox="0 0 72 59" fill="none" xmlns="http://www.w3.org/2000/svg">
<path d="M42.4999 19.1L38.9999 16.7C38.4999 16.4 37.7999 16.5 37.4999 17.1L36.3999 19.1" fill="#F1B31C"/>
<path d="M64.8004 33.7L63.7004 33.1C63.3004 32.9 63.1004 32.5 63.2004 32.1C63.5004 30.2 63.7004 23.6 53.5004 20.6C53.3004 20.5 53.1004 20.5 52.9004 20.5L33.3004 20.6C32.9004 20.6 32.5004 20.7 32.2004 20.9L21.9004 27.8C21.7004 27.9 21.5004 28 21.3004 28C19.4004 27.9 17.6004 28.1 15.7004 28.4C10.3004 29.5 8.10041 32.4 7.30041 33.9C7.10041 34.2 7.10041 34.6 7.10041 34.9C7.20041 37.3 5.60041 40 8.00041 42.2L27.4004 42.1L47.8004 41.6L63.9004 41.4C64.8004 41.3 66.3004 40 66.7004 39.2C68.4004 36.5 65.0004 33.8 64.8004 33.7Z" fill="#FCEA2B"/>
<path d="M17.2998 36.1C15.0998 36.1 13.2998 37.9 13.2998 40.1C13.2998 42.3 15.0998 44.1 17.2998 44.1C19.4998 44.1 21.2998 42.3 21.2998 40.1C21.2998 37.9 19.4998 36.1 17.2998 36.1ZM57.0998 36.1C54.8998 36.1 53.0998 37.9 53.0998 40.1C53.0998 42.3 54.8998 44.1 57.0998 44.1C59.2998 44.1 61.0998 42.3 61.0998 40.1C61.0998 37.9 59.2998 36.1 57.0998 36.1Z" fill="#9B9B9A"/>
<path d="M56.0999 29V24.7C56.0999 23.8 55.2999 23 54.3999 23H33.1999C33.0999 23 32.9999 23 32.9999 23.1L24.3999 28.8C24.1999 28.9 24.7999 29.2 24.8999 29.4C24.9999 29.5 25.0999 29.6 25.1999 29.6C30.7999 29.6 52.3999 29.4 55.5999 29.5C55.8999 29.5 56.0999 29.3 56.0999 29C56.0999 29.1 56.0999 29.1 56.0999 29Z" fill="#3F3F3F"/>
<path d="M8.8998 30.2L12.8998 31.8L10.7998 34.7L5.7998 34.8L8.8998 30.2Z" fill="#D0CFCE"/>
<path d="M42.4999 19.1L38.9999 16.7C38.4999 16.4 37.7999 16.5 37.4999 17.1L36.3999 19.1" stroke="black" stroke-width="2" stroke-miterlimit="10" stroke-linecap="round" stroke-linejoin="round"/>
<path d="M47.6 40.7L27 41.1M8.1 41.1C7.2 40.9 6.4 40.6 6.3 40.1C6.2 39.1 6 36.3 6 35C6 34.5 6.1 33.9 6.4 33.5C7.5 31.5 11.2 26.7 21.3 27.1L31.6 20.2C32.1 19.9 32.7 19.7 33.2 19.7L52.8 19.6C53.1 19.6 53.4 19.6 53.7 19.7C55.9 20.3 65.4 23.7 64.1 32.3L65.2 32.9C65.7 33.1 66.1 33.6 66.2 34.1C66.6 35.5 66.5 37 66 38.4" stroke="black" stroke-width="2" stroke-linecap="round" stroke-linejoin="round"/>
<path d="M24.8999 29.6L55.0999 29.4V24.9" stroke="black" stroke-width="2" stroke-linecap="round" stroke-linejoin="round"/>
<path d="M17.2998 45.1C20.0612 45.1 22.2998 42.8614 22.2998 40.1C22.2998 37.3386 20.0612 35.1 17.2998 35.1C14.5384 35.1 12.2998 37.3386 12.2998 40.1C12.2998 42.8614 14.5384 45.1 17.2998 45.1Z" stroke="black" stroke-width="2" stroke-linecap="round" stroke-linejoin="round"/>
<path d="M57.1001 45.1C59.8615 45.1 62.1001 42.8614 62.1001 40.1C62.1001 37.3386 59.8615 35.1 57.1001 35.1C54.3387 35.1 52.1001 37.3386 52.1001 40.1C52.1001 42.8614 54.3387 45.1 57.1001 45.1Z" stroke="black" stroke-width="2" stroke-linecap="round" stroke-linejoin="round"/>
<path d="M12.2998 32.6L10.4998 34.8L6.7998 34.7" stroke="black" stroke-width="2" stroke-linecap="round" stroke-linejoin="round"/>
<path d="M24.1001 33.1H50.1001" stroke="black" stroke-width="2" stroke-miterlimit="10" stroke-linecap="round" stroke-linejoin="round"/>
<path d="M24.1001 33.1H50.1001" stroke="#F1B31C" stroke-width="2.1" stroke-miterlimit="10" stroke-linecap="round" stroke-linejoin="round"/>
</svg>
