<svg width="72" height="59" viewBox="0 0 72 59" fill="none" xmlns="http://www.w3.org/2000/svg">
<path d="M42.4999 20.1L38.9999 17.7C38.4999 17.4 37.7999 17.5 37.4999 18.1L36.3999 20.1" fill="#F1B31C"/>
<path d="M64.7999 34.7L63.6999 34.1C63.2999 33.9 63.0999 33.5 63.1999 33.1C63.4999 31.2 63.6999 24.6 53.4999 21.6C53.2999 21.5 53.0999 21.5 52.8999 21.5L33.2999 21.6C32.8999 21.6 32.4999 21.7 32.1999 21.9L21.8999 28.8C21.6999 28.9 21.4999 29 21.2999 29C19.3999 28.9 17.5999 29.1 15.6999 29.4C10.2999 30.5 8.09992 33.4 7.29992 34.9C7.09992 35.2 7.09992 35.6 7.09992 35.9C7.19992 38.3 5.59992 41 7.99992 43.2L27.3999 43.1L47.7999 42.6L63.8999 42.4C64.7999 42.3 66.2999 41 66.6999 40.2C68.3999 37.5 64.9999 34.8 64.7999 34.7Z" fill="#FCEA2B"/>
<path d="M17.2998 37.1C15.0998 37.1 13.2998 38.9 13.2998 41.1C13.2998 43.3 15.0998 45.1 17.2998 45.1C19.4998 45.1 21.2998 43.3 21.2998 41.1C21.2998 38.9 19.4998 37.1 17.2998 37.1ZM57.0998 37.1C54.8998 37.1 53.0998 38.9 53.0998 41.1C53.0998 43.3 54.8998 45.1 57.0998 45.1C59.2998 45.1 61.0998 43.3 61.0998 41.1C61.0998 38.9 59.2998 37.1 57.0998 37.1Z" fill="#9B9B9A"/>
<path d="M56.0999 30V25.7C56.0999 24.8 55.2999 24 54.3999 24H33.1999C33.0999 24 32.9999 24 32.9999 24.1L24.3999 29.8C24.1999 29.9 24.7999 30.2 24.8999 30.4C24.9999 30.5 25.0999 30.6 25.1999 30.6C30.7999 30.6 52.3999 30.4 55.5999 30.5C55.8999 30.5 56.0999 30.3 56.0999 30C56.0999 30.1 56.0999 30.1 56.0999 30Z" fill="#3F3F3F"/>
<path d="M8.8998 31.2L12.8998 32.8L10.7998 35.7L5.7998 35.8L8.8998 31.2Z" fill="#D0CFCE"/>
<path d="M42.4999 20.1L38.9999 17.7C38.4999 17.4 37.7999 17.5 37.4999 18.1L36.3999 20.1" stroke="black" stroke-width="2" stroke-miterlimit="10" stroke-linecap="round" stroke-linejoin="round"/>
<path d="M47.6 41.7L27 42.1M8.1 42.1C7.2 41.9 6.4 41.6 6.3 41.1C6.2 40.1 6 37.3 6 36C6 35.5 6.1 34.9 6.4 34.5C7.5 32.5 11.2 27.7 21.3 28.1L31.6 21.2C32.1 20.9 32.7 20.7 33.2 20.7L52.8 20.6C53.1 20.6 53.4 20.6 53.7 20.7C55.9 21.3 65.4 24.7 64.1 33.3L65.2 33.9C65.7 34.1 66.1 34.6 66.2 35.1C66.6 36.5 66.5 38 66 39.4" stroke="black" stroke-width="2" stroke-linecap="round" stroke-linejoin="round"/>
<path d="M24.8999 30.6L55.0999 30.4V25.9" stroke="black" stroke-width="2" stroke-linecap="round" stroke-linejoin="round"/>
<path d="M17.2998 46.1C20.0612 46.1 22.2998 43.8614 22.2998 41.1C22.2998 38.3386 20.0612 36.1 17.2998 36.1C14.5384 36.1 12.2998 38.3386 12.2998 41.1C12.2998 43.8614 14.5384 46.1 17.2998 46.1Z" stroke="black" stroke-width="2" stroke-linecap="round" stroke-linejoin="round"/>
<path d="M57.1001 46.1C59.8615 46.1 62.1001 43.8614 62.1001 41.1C62.1001 38.3386 59.8615 36.1 57.1001 36.1C54.3387 36.1 52.1001 38.3386 52.1001 41.1C52.1001 43.8614 54.3387 46.1 57.1001 46.1Z" stroke="black" stroke-width="2" stroke-linecap="round" stroke-linejoin="round"/>
<path d="M12.2998 33.6L10.4998 35.8L6.7998 35.7" stroke="black" stroke-width="2" stroke-linecap="round" stroke-linejoin="round"/>
<path d="M24.1001 34.1H50.1001" stroke="black" stroke-width="2" stroke-miterlimit="10" stroke-linecap="round" stroke-linejoin="round"/>
<path d="M24.1001 34.1H50.1001" stroke="#F1B31C" stroke-width="2.1" stroke-miterlimit="10" stroke-linecap="round" stroke-linejoin="round"/>
</svg>
