<svg width="20" height="18" viewBox="0 0 20 18" fill="none" xmlns="http://www.w3.org/2000/svg">
<path d="M6.66667 8.55C6.97934 8.55 7.28895 8.4918 7.57782 8.37873C7.86669 8.26566 8.12916 8.09992 8.35026 7.89099C8.57135 7.68206 8.74673 7.43402 8.86638 7.16104C8.98603 6.88806 9.04762 6.59547 9.04762 6.3C9.04762 6.00453 8.98603 5.71195 8.86638 5.43896C8.74673 5.16598 8.57135 4.91794 8.35026 4.70901C8.12916 4.50008 7.86669 4.33434 7.57782 4.22127C7.28895 4.1082 6.97934 4.05 6.66667 4.05C6.0352 4.05 5.42959 4.28705 4.98308 4.70901C4.53656 5.13097 4.28571 5.70326 4.28571 6.3C4.28571 6.59547 4.3473 6.88806 4.46695 7.16104C4.58661 7.43402 4.76199 7.68206 4.98308 7.89099C5.42959 8.31295 6.0352 8.55 6.66667 8.55ZM6.66667 0C10.3429 0 13.3333 2.817 13.3333 6.3C13.3333 11.025 6.66667 18 6.66667 18C6.66667 18 0 11.025 0 6.3C0 4.62914 0.702379 3.02671 1.95262 1.84523C3.20286 0.663748 4.89856 0 6.66667 0ZM12.381 13.5H15.2381V10.8H17.1429V13.5H20V15.3H17.1429V18H15.2381V15.3H12.381V13.5Z" fill="#FFC100"/>
</svg>
